# xmcd CD database file
#
# Track frame offsets:
#	150
#	75552
#	116504
#	137015
#	162297
#	185885
#	220841
#	239105
#	295098
#
# Disc length: 4309 seconds
#
# Revision: 0
# Processed by: cddbd v1.5.2PL0 Copyright (c) Steve Scherf et al.
# Submitted via: CDex 1.70beta2
#
DISCID=8410d309
DTITLE=Billy Harper - Blueprints of Jazz Vol.2
DYEAR=2006
DGENRE=Jazz
TTITLE0=Africa Revisited
TTITLE1=Knowledge of Self
TTITLE2=Another Kind of Thoroughbred
TTITLE3=Thoughts and Slow Actions
TTITLE4=Time and Time Again
TTITLE5=Who Here Can Just Our Fates?
TTITLE6=Amazing Grace
TTITLE7=Cast the First Stone? (...If You Yourself Have No Sins)
TTITLE8=Oh... If Only
EXTD=YEAR: 2006
EXTT0=
EXTT1=
EXTT2=
EXTT3=
EXTT4=
EXTT5=
EXTT6=
EXTT7=
EXTT8=
PLAYORDER=
